<svg xmlns="http://www.w3.org/2000/svg" viewBox="-20 -20 168 168" shape-rendering="crispEdges" role="img" aria-label="Bubbles casting a spell"><title>Bubbles casting a spell</title><g transform="rotate(12 64 64)"><rect x="104" y="0" width="4" height="4" fill="#FFFBE6"/><rect x="100" y="4" width="8" height="4" fill="#FFFBE6"/><rect x="96" y="8" width="8" height="4" fill="#2D1B3D"/><rect x="104" y="8" width="4" height="4" fill="#FFFBE6"/><rect x="92" y="12" width="8" height="4" fill="#2D1B3D"/><rect x="88" y="16" width="8" height="4" fill="#2D1B3D"/><rect x="44" y="20" width="16" height="4" fill="#FFF8E1"/><rect x="84" y="20" width="8" height="4" fill="#2D1B3D"/><rect x="40" y="24" width="24" height="4" fill="#FFF8E1"/><rect x="76" y="24" width="8" height="4" fill="#2D1B3D"/><rect x="36" y="28" width="36" height="4" fill="#FFF8E1"/><rect x="72" y="28" width="8" height="4" fill="#2D1B3D"/><rect x="32" y="32" width="48" height="4" fill="#FFF8E1"/><rect x="28" y="36" width="60" height="4" fill="#FFF8E1"/><rect x="32" y="40" width="56" height="4" fill="#FFF8E1"/><rect x="16" y="44" width="24" height="4" fill="#2D1B3D"/><rect x="40" y="44" width="32" height="4" fill="#FFF8E1"/><rect x="72" y="44" width="24" height="4" fill="#2D1B3D"/><rect x="12" y="48" width="8" height="4" fill="#2D1B3D"/><rect x="20" y="48" width="24" height="4" fill="#3D2352"/><rect x="44" y="48" width="24" height="4" fill="#FFF8E1"/><rect x="68" y="48" width="24" height="4" fill="#3D2352"/><rect x="92" y="48" width="8" height="4" fill="#2D1B3D"/><rect x="8" y="52" width="8" height="4" fill="#2D1B3D"/><rect x="16" y="52" width="36" height="4" fill="#3D2352"/><rect x="52" y="52" width="8" height="4" fill="#FFF8E1"/><rect x="60" y="52" width="32" height="4" fill="#3D2352"/><rect x="92" y="52" width="8" height="4" fill="#2D1B3D"/><rect x="8" y="56" width="4" height="4" fill="#2D1B3D"/><rect x="12" y="56" width="88" height="4" fill="#3D2352"/><rect x="100" y="56" width="4" height="4" fill="#2D1B3D"/><rect x="4" y="60" width="4" height="4" fill="#2D1B3D"/><rect x="8" y="60" width="96" height="4" fill="#3D2352"/><rect x="104" y="60" width="4" height="4" fill="#2D1B3D"/><rect x="4" y="64" width="4" height="4" fill="#2D1B3D"/><rect x="8" y="64" width="16" height="4" fill="#3D2352"/><rect x="24" y="64" width="8" height="4" fill="#FFFBE6"/><rect x="32" y="64" width="48" height="4" fill="#3D2352"/><rect x="80" y="64" width="8" height="4" fill="#FFFBE6"/><rect x="88" y="64" width="16" height="4" fill="#3D2352"/><rect x="104" y="64" width="4" height="4" fill="#2D1B3D"/><rect x="4" y="68" width="4" height="4" fill="#2D1B3D"/><rect x="8" y="68" width="12" height="4" fill="#3D2352"/><rect x="20" y="68" width="4" height="4" fill="#FFFBE6"/><rect x="24" y="68" width="4" height="4" fill="#F5E6D0"/><rect x="28" y="68" width="4" height="4" fill="#1A0E26"/><rect x="32" y="68" width="48" height="4" fill="#3D2352"/><rect x="80" y="68" width="4" height="4" fill="#F5E6D0"/><rect x="84" y="68" width="4" height="4" fill="#1A0E26"/><rect x="88" y="68" width="4" height="4" fill="#FFFBE6"/><rect x="92" y="68" width="12" height="4" fill="#3D2352"/><rect x="104" y="68" width="4" height="4" fill="#2D1B3D"/><rect x="4" y="72" width="4" height="4" fill="#2D1B3D"/><rect x="8" y="72" width="96" height="4" fill="#3D2352"/><rect x="104" y="72" width="4" height="4" fill="#2D1B3D"/><rect x="4" y="76" width="4" height="4" fill="#2D1B3D"/><rect x="8" y="76" width="16" height="4" fill="#3D2352"/><rect x="24" y="76" width="4" height="4" fill="#8B5A8A"/><rect x="28" y="76" width="56" height="4" fill="#3D2352"/><rect x="84" y="76" width="4" height="4" fill="#8B5A8A"/><rect x="88" y="76" width="16" height="4" fill="#3D2352"/><rect x="104" y="76" width="4" height="4" fill="#2D1B3D"/><rect x="4" y="80" width="4" height="4" fill="#2D1B3D"/><rect x="8" y="80" width="44" height="4" fill="#3D2352"/><rect x="52" y="80" width="4" height="4" fill="#D4A843"/><rect x="56" y="80" width="44" height="4" fill="#3D2352"/><rect x="100" y="80" width="4" height="4" fill="#2D1B3D"/><rect x="8" y="84" width="4" height="4" fill="#2D1B3D"/><rect x="12" y="84" width="88" height="4" fill="#3D2352"/><rect x="100" y="84" width="4" height="4" fill="#2D1B3D"/><rect x="8" y="88" width="8" height="4" fill="#2D1B3D"/><rect x="16" y="88" width="76" height="4" fill="#3D2352"/><rect x="92" y="88" width="8" height="4" fill="#2D1B3D"/><rect x="12" y="92" width="8" height="4" fill="#2D1B3D"/><rect x="20" y="92" width="64" height="4" fill="#3D2352"/><rect x="84" y="92" width="8" height="4" fill="#2D1B3D"/><rect x="16" y="96" width="68" height="4" fill="#2D1B3D"/><rect x="24" y="100" width="8" height="4" fill="#2D1B3D"/><rect x="72" y="100" width="8" height="4" fill="#2D1B3D"/><rect x="24" y="104" width="8" height="4" fill="#2D1B3D"/><rect x="72" y="104" width="8" height="4" fill="#2D1B3D"/><rect x="4" y="112" width="4" height="4" fill="#FFFBE6"/></g><rect x="-5.5" y="109" width="3" height="6" fill="#FFFBE6" rx="1"/><rect x="-7" y="110.5" width="6" height="3" fill="#FFFBE6" rx="1"/><rect x="-13" y="120" width="2" height="4" fill="#FFFBE6" rx="1"/><rect x="-14" y="121" width="4" height="2" fill="#FFFBE6" rx="1"/><rect x="138.5" y="5.5" width="3" height="5" fill="#FFFBE6" rx="1"/><rect x="137.5" y="6.5" width="5" height="3" fill="#FFFBE6" rx="1"/></svg>
