<svg xmlns="http://www.w3.org/2000/svg" viewBox="-20 -20 168 168" shape-rendering="crispEdges" role="img" aria-label="Bubbles the cauldron, wearing a witch hat"><title>Bubbles the cauldron, wearing a witch hat</title><g><rect x="40" y="0" width="32" height="4" fill="#2D1B3D"/><rect x="36" y="4" width="40" height="4" fill="#2D1B3D"/><rect x="32" y="8" width="48" height="4" fill="#2D1B3D"/><rect x="28" y="12" width="56" height="4" fill="#2D1B3D"/><rect x="24" y="16" width="68" height="4" fill="#2D1B3D"/><rect x="20" y="20" width="76" height="4" fill="#2D1B3D"/><rect x="16" y="24" width="84" height="4" fill="#2D1B3D"/><rect x="12" y="28" width="96" height="4" fill="#2D1B3D"/><rect x="8" y="32" width="104" height="4" fill="#2D1B3D"/><rect x="4" y="36" width="116" height="4" fill="#2D1B3D"/><rect x="0" y="40" width="128" height="4" fill="#2D1B3D"/><rect x="8" y="44" width="8" height="4" fill="#2D1B3D"/><rect x="16" y="44" width="8" height="4" fill="#3D2352"/><rect x="24" y="44" width="80" height="4" fill="#2D1B3D"/><rect x="104" y="44" width="8" height="4" fill="#3D2352"/><rect x="16" y="48" width="8" height="4" fill="#3D2352"/><rect x="24" y="48" width="76" height="4" fill="#F5E6D0"/><rect x="16" y="52" width="24" height="4" fill="#2D1B3D"/><rect x="40" y="52" width="32" height="4" fill="#FFF8E1"/><rect x="72" y="52" width="24" height="4" fill="#2D1B3D"/><rect x="12" y="56" width="8" height="4" fill="#2D1B3D"/><rect x="20" y="56" width="16" height="4" fill="#3D2352"/><rect x="36" y="56" width="40" height="4" fill="#FFF8E1"/><rect x="76" y="56" width="16" height="4" fill="#3D2352"/><rect x="92" y="56" width="8" height="4" fill="#2D1B3D"/><rect x="8" y="60" width="8" height="4" fill="#2D1B3D"/><rect x="16" y="60" width="20" height="4" fill="#3D2352"/><rect x="36" y="60" width="44" height="4" fill="#FFF8E1"/><rect x="80" y="60" width="16" height="4" fill="#3D2352"/><rect x="96" y="60" width="8" height="4" fill="#2D1B3D"/><rect x="8" y="64" width="4" height="4" fill="#2D1B3D"/><rect x="12" y="64" width="32" height="4" fill="#3D2352"/><rect x="44" y="64" width="24" height="4" fill="#FFF8E1"/><rect x="68" y="64" width="32" height="4" fill="#3D2352"/><rect x="100" y="64" width="4" height="4" fill="#2D1B3D"/><rect x="4" y="68" width="4" height="4" fill="#2D1B3D"/><rect x="8" y="68" width="96" height="4" fill="#3D2352"/><rect x="104" y="68" width="4" height="4" fill="#2D1B3D"/><rect x="4" y="72" width="4" height="4" fill="#2D1B3D"/><rect x="8" y="72" width="8" height="4" fill="#3D2352"/><rect x="16" y="72" width="8" height="4" fill="#FFFBE6"/><rect x="24" y="72" width="60" height="4" fill="#3D2352"/><rect x="84" y="72" width="8" height="4" fill="#FFFBE6"/><rect x="92" y="72" width="12" height="4" fill="#3D2352"/><rect x="104" y="72" width="4" height="4" fill="#2D1B3D"/><rect x="4" y="76" width="4" height="4" fill="#2D1B3D"/><rect x="8" y="76" width="4" height="4" fill="#3D2352"/><rect x="12" y="76" width="4" height="4" fill="#FFFBE6"/><rect x="16" y="76" width="4" height="4" fill="#F5E6D0"/><rect x="20" y="76" width="4" height="4" fill="#1A0E26"/><rect x="24" y="76" width="56" height="4" fill="#3D2352"/><rect x="80" y="76" width="4" height="4" fill="#F5E6D0"/><rect x="84" y="76" width="4" height="4" fill="#1A0E26"/><rect x="88" y="76" width="4" height="4" fill="#FFFBE6"/><rect x="92" y="76" width="8" height="4" fill="#3D2352"/><rect x="100" y="76" width="4" height="4" fill="#2D1B3D"/><rect x="4" y="80" width="4" height="4" fill="#2D1B3D"/><rect x="8" y="80" width="96" height="4" fill="#3D2352"/><rect x="104" y="80" width="4" height="4" fill="#2D1B3D"/><rect x="4" y="84" width="4" height="4" fill="#2D1B3D"/><rect x="8" y="84" width="12" height="4" fill="#3D2352"/><rect x="20" y="84" width="4" height="4" fill="#8B5A8A"/><rect x="24" y="84" width="60" height="4" fill="#3D2352"/><rect x="84" y="84" width="4" height="4" fill="#8B5A8A"/><rect x="88" y="84" width="16" height="4" fill="#3D2352"/><rect x="104" y="84" width="4" height="4" fill="#2D1B3D"/><rect x="116" y="84" width="4" height="4" fill="#FFFBE6"/><rect x="4" y="88" width="4" height="4" fill="#2D1B3D"/><rect x="8" y="88" width="100" height="4" fill="#3D2352"/><rect x="108" y="88" width="4" height="4" fill="#2D1B3D"/><rect x="8" y="92" width="4" height="4" fill="#2D1B3D"/><rect x="12" y="92" width="88" height="4" fill="#3D2352"/><rect x="100" y="92" width="8" height="4" fill="#2D1B3D"/><rect x="8" y="96" width="8" height="4" fill="#2D1B3D"/><rect x="16" y="96" width="84" height="4" fill="#3D2352"/><rect x="100" y="96" width="8" height="4" fill="#2D1B3D"/><rect x="12" y="100" width="8" height="4" fill="#2D1B3D"/><rect x="20" y="100" width="72" height="4" fill="#3D2352"/><rect x="92" y="100" width="8" height="4" fill="#2D1B3D"/><rect x="16" y="104" width="72" height="4" fill="#2D1B3D"/><rect x="24" y="108" width="8" height="4" fill="#2D1B3D"/><rect x="72" y="108" width="8" height="4" fill="#2D1B3D"/><rect x="24" y="112" width="8" height="4" fill="#2D1B3D"/><rect x="72" y="112" width="8" height="4" fill="#2D1B3D"/><rect x="4" y="120" width="4" height="4" fill="#FFFBE6"/><rect x="124" y="120" width="4" height="4" fill="#FFFBE6"/></g></svg>
