<svg xmlns="http://www.w3.org/2000/svg" viewBox="-16 -16 112 100" shape-rendering="crispEdges" role="img" aria-label="Manta resting"><title>Manta resting</title><g><rect x="28" y="0" width="4" height="4" fill="#1E3A8A"/><rect x="48" y="0" width="4" height="4" fill="#1E3A8A"/><rect x="28" y="4" width="4" height="4" fill="#2563EB"/><rect x="48" y="4" width="4" height="4" fill="#2563EB"/><rect x="24" y="8" width="4" height="4" fill="#1E3A8A"/><rect x="28" y="8" width="24" height="4" fill="#2563EB"/><rect x="52" y="8" width="4" height="4" fill="#1E3A8A"/><rect x="20" y="12" width="4" height="4" fill="#1E3A8A"/><rect x="24" y="12" width="32" height="4" fill="#2563EB"/><rect x="56" y="12" width="4" height="4" fill="#1E3A8A"/><rect x="16" y="16" width="4" height="4" fill="#1E3A8A"/><rect x="20" y="16" width="8" height="4" fill="#2563EB"/><rect x="28" y="16" width="8" height="4" fill="#1E3A8A"/><rect x="36" y="16" width="8" height="4" fill="#2563EB"/><rect x="44" y="16" width="8" height="4" fill="#1E3A8A"/><rect x="52" y="16" width="8" height="4" fill="#2563EB"/><rect x="60" y="16" width="4" height="4" fill="#1E3A8A"/><rect x="12" y="20" width="4" height="4" fill="#1E3A8A"/><rect x="16" y="20" width="48" height="4" fill="#2563EB"/><rect x="64" y="20" width="4" height="4" fill="#1E3A8A"/><rect x="8" y="24" width="4" height="4" fill="#1E3A8A"/><rect x="12" y="24" width="12" height="4" fill="#2563EB"/><rect x="24" y="24" width="4" height="4" fill="#FFFFFF"/><rect x="28" y="24" width="24" height="4" fill="#2563EB"/><rect x="52" y="24" width="4" height="4" fill="#FFFFFF"/><rect x="56" y="24" width="12" height="4" fill="#2563EB"/><rect x="68" y="24" width="4" height="4" fill="#1E3A8A"/><rect x="0" y="28" width="4" height="4" fill="#1E3A8A"/><rect x="4" y="28" width="72" height="4" fill="#2563EB"/><rect x="76" y="28" width="4" height="4" fill="#1E3A8A"/><rect x="4" y="32" width="4" height="4" fill="#1E3A8A"/><rect x="8" y="32" width="64" height="4" fill="#2563EB"/><rect x="72" y="32" width="4" height="4" fill="#1E3A8A"/><rect x="12" y="36" width="4" height="4" fill="#1E3A8A"/><rect x="16" y="36" width="8" height="4" fill="#2563EB"/><rect x="24" y="36" width="4" height="4" fill="#FFFFFF"/><rect x="28" y="36" width="24" height="4" fill="#2563EB"/><rect x="52" y="36" width="4" height="4" fill="#FFFFFF"/><rect x="56" y="36" width="8" height="4" fill="#2563EB"/><rect x="64" y="36" width="4" height="4" fill="#1E3A8A"/><rect x="16" y="40" width="4" height="4" fill="#1E3A8A"/><rect x="20" y="40" width="40" height="4" fill="#2563EB"/><rect x="60" y="40" width="4" height="4" fill="#1E3A8A"/><rect x="20" y="44" width="4" height="4" fill="#1E3A8A"/><rect x="24" y="44" width="32" height="4" fill="#2563EB"/><rect x="56" y="44" width="4" height="4" fill="#1E3A8A"/><rect x="24" y="48" width="4" height="4" fill="#1E3A8A"/><rect x="28" y="48" width="24" height="4" fill="#2563EB"/><rect x="52" y="48" width="4" height="4" fill="#1E3A8A"/><rect x="28" y="52" width="4" height="4" fill="#1E3A8A"/><rect x="32" y="52" width="16" height="4" fill="#2563EB"/><rect x="48" y="52" width="4" height="4" fill="#1E3A8A"/><rect x="32" y="56" width="4" height="4" fill="#1E3A8A"/><rect x="36" y="56" width="8" height="4" fill="#2563EB"/><rect x="44" y="56" width="4" height="4" fill="#1E3A8A"/><rect x="36" y="60" width="8" height="4" fill="#2563EB"/><rect x="36" y="64" width="8" height="4" fill="#1E3A8A"/></g><rect x="74" y="-2" width="9" height="3" fill="#94A3B8"/><rect x="80" y="1" width="3" height="3" fill="#94A3B8"/><rect x="77" y="4" width="3" height="3" fill="#94A3B8"/><rect x="74" y="7" width="3" height="3" fill="#94A3B8"/><rect x="74" y="10" width="9" height="3" fill="#94A3B8"/><rect x="90" y="-16" width="6" height="2" fill="#94A3B8"/><rect x="94" y="-14" width="2" height="2" fill="#94A3B8"/><rect x="92" y="-12" width="2" height="2" fill="#94A3B8"/><rect x="90" y="-10" width="2" height="2" fill="#94A3B8"/><rect x="90" y="-8" width="6" height="2" fill="#94A3B8"/></svg>
