<svg xmlns="http://www.w3.org/2000/svg" viewBox="-20 -20 168 168" shape-rendering="crispEdges" role="img" aria-label="Bubbles celebrating"><title>Bubbles celebrating</title><g><rect x="40" y="4" width="16" height="4" fill="#FFF8E1"/><rect x="124" y="4" width="4" height="4" fill="#FFFBE6"/><rect x="36" y="8" width="24" height="4" fill="#FFF8E1"/><rect x="68" y="8" width="12" height="4" fill="#FFF8E1"/><rect x="32" y="12" width="48" height="4" fill="#FFF8E1"/><rect x="28" y="16" width="56" height="4" fill="#FFF8E1"/><rect x="24" y="20" width="68" height="4" fill="#FFF8E1"/><rect x="28" y="24" width="60" height="4" fill="#FFF8E1"/><rect x="16" y="28" width="24" height="4" fill="#2D1B3D"/><rect x="40" y="28" width="32" height="4" fill="#FFF8E1"/><rect x="72" y="28" width="28" height="4" fill="#2D1B3D"/><rect x="12" y="32" width="8" height="4" fill="#2D1B3D"/><rect x="20" y="32" width="20" height="4" fill="#3D2352"/><rect x="40" y="32" width="32" height="4" fill="#FFF8E1"/><rect x="72" y="32" width="24" height="4" fill="#3D2352"/><rect x="96" y="32" width="8" height="4" fill="#2D1B3D"/><rect x="8" y="36" width="8" height="4" fill="#2D1B3D"/><rect x="16" y="36" width="32" height="4" fill="#3D2352"/><rect x="48" y="36" width="16" height="4" fill="#FFF8E1"/><rect x="64" y="36" width="36" height="4" fill="#3D2352"/><rect x="100" y="36" width="8" height="4" fill="#2D1B3D"/><rect x="8" y="40" width="4" height="4" fill="#2D1B3D"/><rect x="12" y="40" width="96" height="4" fill="#3D2352"/><rect x="108" y="40" width="4" height="4" fill="#2D1B3D"/><rect x="4" y="44" width="4" height="4" fill="#2D1B3D"/><rect x="8" y="44" width="104" height="4" fill="#3D2352"/><rect x="112" y="44" width="4" height="4" fill="#2D1B3D"/><rect x="4" y="48" width="4" height="4" fill="#2D1B3D"/><rect x="8" y="48" width="104" height="4" fill="#3D2352"/><rect x="112" y="48" width="4" height="4" fill="#2D1B3D"/><rect x="4" y="52" width="4" height="4" fill="#2D1B3D"/><rect x="8" y="52" width="12" height="4" fill="#3D2352"/><rect x="20" y="52" width="8" height="4" fill="#FFFBE6"/><rect x="28" y="52" width="60" height="4" fill="#3D2352"/><rect x="88" y="52" width="8" height="4" fill="#FFFBE6"/><rect x="96" y="52" width="16" height="4" fill="#3D2352"/><rect x="112" y="52" width="4" height="4" fill="#2D1B3D"/><rect x="4" y="56" width="4" height="4" fill="#2D1B3D"/><rect x="8" y="56" width="8" height="4" fill="#3D2352"/><rect x="16" y="56" width="4" height="4" fill="#FFFBE6"/><rect x="20" y="56" width="4" height="4" fill="#F5E6D0"/><rect x="24" y="56" width="4" height="4" fill="#1A0E26"/><rect x="28" y="56" width="60" height="4" fill="#3D2352"/><rect x="88" y="56" width="4" height="4" fill="#F5E6D0"/><rect x="92" y="56" width="4" height="4" fill="#1A0E26"/><rect x="96" y="56" width="4" height="4" fill="#FFFBE6"/><rect x="100" y="56" width="12" height="4" fill="#3D2352"/><rect x="112" y="56" width="4" height="4" fill="#2D1B3D"/><rect x="4" y="60" width="4" height="4" fill="#2D1B3D"/><rect x="8" y="60" width="104" height="4" fill="#3D2352"/><rect x="112" y="60" width="4" height="4" fill="#2D1B3D"/><rect x="4" y="64" width="4" height="4" fill="#2D1B3D"/><rect x="8" y="64" width="100" height="4" fill="#3D2352"/><rect x="108" y="64" width="4" height="4" fill="#2D1B3D"/><rect x="4" y="68" width="4" height="4" fill="#2D1B3D"/><rect x="8" y="68" width="32" height="4" fill="#3D2352"/><rect x="40" y="68" width="32" height="4" fill="#D4A843"/><rect x="72" y="68" width="32" height="4" fill="#3D2352"/><rect x="104" y="68" width="4" height="4" fill="#2D1B3D"/><rect x="4" y="72" width="4" height="4" fill="#2D1B3D"/><rect x="8" y="72" width="96" height="4" fill="#3D2352"/><rect x="104" y="72" width="4" height="4" fill="#2D1B3D"/><rect x="4" y="76" width="4" height="4" fill="#2D1B3D"/><rect x="8" y="76" width="16" height="4" fill="#3D2352"/><rect x="24" y="76" width="4" height="4" fill="#8B5A8A"/><rect x="28" y="76" width="56" height="4" fill="#3D2352"/><rect x="84" y="76" width="4" height="4" fill="#8B5A8A"/><rect x="88" y="76" width="12" height="4" fill="#3D2352"/><rect x="100" y="76" width="4" height="4" fill="#2D1B3D"/><rect x="8" y="80" width="4" height="4" fill="#2D1B3D"/><rect x="12" y="80" width="88" height="4" fill="#3D2352"/><rect x="100" y="80" width="4" height="4" fill="#2D1B3D"/><rect x="8" y="84" width="8" height="4" fill="#2D1B3D"/><rect x="16" y="84" width="76" height="4" fill="#3D2352"/><rect x="92" y="84" width="8" height="4" fill="#2D1B3D"/><rect x="12" y="88" width="8" height="4" fill="#2D1B3D"/><rect x="20" y="88" width="68" height="4" fill="#3D2352"/><rect x="88" y="88" width="8" height="4" fill="#2D1B3D"/><rect x="16" y="92" width="68" height="4" fill="#2D1B3D"/><rect x="24" y="96" width="8" height="4" fill="#2D1B3D"/><rect x="72" y="96" width="8" height="4" fill="#2D1B3D"/><rect x="24" y="100" width="8" height="4" fill="#2D1B3D"/><rect x="72" y="100" width="8" height="4" fill="#2D1B3D"/><rect x="0" y="108" width="4" height="4" fill="#FFFBE6"/></g><rect x="1.5" y="1" width="5" height="10" fill="#FFFBE6" rx="1"/><rect x="-1" y="3.5" width="10" height="5" fill="#FFFBE6" rx="1"/><rect x="122" y="0" width="4" height="8" fill="#FFFBE6" rx="1"/><rect x="120" y="2" width="8" height="4" fill="#FFFBE6" rx="1"/><rect x="62" y="-11.5" width="4" height="7" fill="#FFFBE6" rx="1"/><rect x="60.5" y="-10" width="7" height="4" fill="#FFFBE6" rx="1"/><rect x="134.5" y="21" width="3" height="6" fill="#FFFBE6" rx="1"/><rect x="133" y="22.5" width="6" height="3" fill="#FFFBE6" rx="1"/></svg>
